<svg width="139" height="32" viewBox="0 0 139 32" fill="none" xmlns="http://www.w3.org/2000/svg">
<path d="M41.6975 22.1538C40.77 22.1538 40.045 22.0226 39.5225 21.76C39 21.4974 38.6342 21.1036 38.4252 20.5785C38.2162 20.0533 38.1117 19.4035 38.1117 18.6289V14.2375C38.1117 12.9772 38.3926 12.0517 38.9543 11.4609C39.516 10.857 40.4304 10.5551 41.6975 10.5551H47.5955C48.4969 10.5551 49.1827 10.6076 49.653 10.7126C50.1363 10.8045 50.378 10.9029 50.378 11.008L49.9861 12.6425C49.764 12.6031 49.1043 12.5637 48.007 12.5243C46.9228 12.4718 45.3421 12.4455 43.2651 12.4455H42.2658C41.2207 12.4455 40.6982 12.9116 40.6982 13.8437V18.8652C40.6982 19.3116 40.8092 19.6595 41.0313 19.9089C41.2664 20.1452 41.6779 20.2634 42.2658 20.2634H43.0692C45.2376 20.2634 46.9163 20.2437 48.105 20.2043C49.3068 20.1518 50.0514 20.0993 50.3388 20.0468L51.1422 21.3465C51.1422 21.4121 51.0312 21.5106 50.8091 21.6418C50.6001 21.7731 50.2082 21.8913 49.6334 21.9963C49.0586 22.1013 48.2291 22.1538 47.1449 22.1538H41.6975ZM55.2352 22.1538C54.2424 22.1538 53.5239 21.9241 53.0798 21.4646C52.6356 20.992 52.4136 20.3487 52.4136 19.5348C52.4136 18.6814 52.6422 18.025 53.0994 17.5655C53.5697 17.106 54.2816 16.8763 55.2352 16.8763H56.2345C57.2143 16.8763 58.096 16.9026 58.8798 16.9551C59.6636 17.0076 60.3102 17.0601 60.8197 17.1126V15.8129C60.8197 15.6948 60.8066 15.5766 60.7805 15.4585C60.7544 15.3272 60.676 15.2221 60.5454 15.1434C60.4147 15.0646 60.1927 15.0252 59.8792 15.0252H58.8994C57.4755 15.0252 56.2868 15.0515 55.3332 15.104C54.3795 15.1434 53.7329 15.1828 53.3933 15.2221L53.1778 13.7255C53.1778 13.5417 53.6741 13.4301 54.667 13.3908C55.6597 13.3514 57.3187 13.3317 59.644 13.3317H60.6238C61.2769 13.3317 61.7797 13.4236 62.1324 13.6074C62.4851 13.7912 62.7337 14.0209 62.877 14.2966C63.0337 14.5723 63.1256 14.8546 63.1513 15.1434C63.1905 15.4191 63.2101 15.6554 63.2101 15.8523V22.1538H61.6033L60.8393 21.76C60.2906 21.8519 59.6309 21.9438 58.8602 22.0357C58.0895 22.1145 57.2077 22.1538 56.2149 22.1538H55.2352ZM55.7447 20.4603H60.2319C60.5192 20.4603 60.689 20.434 60.7413 20.3815C60.7936 20.329 60.8197 20.1649 60.8197 19.8892V18.3729H55.7447C55.392 18.3729 55.1437 18.4583 55.0001 18.6289C54.8694 18.7996 54.8041 19.0687 54.8041 19.4363C54.8041 19.8039 54.8825 20.0665 55.0393 20.224C55.196 20.3815 55.4312 20.4603 55.7447 20.4603ZM65.4708 22.1538V13.3317H67.0776L67.8222 13.7255C68.162 13.5417 68.5276 13.3973 68.9195 13.2923C69.3114 13.1873 69.808 13.1348 70.4087 13.1348C71.3621 13.1348 72.133 13.2398 72.7209 13.4498C73.3216 13.6599 73.7202 13.8174 73.9161 13.9225L73.2303 15.6357C73.0736 15.5569 72.8121 15.4585 72.4465 15.3403C72.0938 15.209 71.6756 15.0909 71.1925 14.9858C70.7093 14.8808 70.1803 14.8283 69.6053 14.8283H69.3898C68.7627 14.8283 68.3512 14.953 68.1553 15.2025C67.9722 15.4519 67.8742 15.8654 67.8614 16.4431V22.1538H65.4708ZM77.6777 22.1538C77.025 22.1538 76.5216 22.0685 76.1689 21.8978C75.8162 21.7272 75.5615 21.5106 75.4047 21.248C75.2614 20.9854 75.1696 20.7097 75.1304 20.4209C75.1047 20.1321 75.0912 19.8695 75.0912 19.6332V15.8523C75.0912 15.6554 75.1047 15.4191 75.1304 15.1434C75.1696 14.8546 75.2614 14.5723 75.4047 14.2966C75.5615 14.0209 75.8162 13.7912 76.1689 13.6074C76.5351 13.4236 77.0378 13.3317 77.6777 13.3317H81.8906C82.7527 13.3317 83.4257 13.417 83.9088 13.5877C84.4054 13.7452 84.7514 14.0078 84.9473 14.3754C85.1568 14.7429 85.2609 15.2353 85.2609 15.8523V18.7668H81.8318C80.6561 18.7668 79.696 18.7405 78.9514 18.688C78.2202 18.6355 77.7304 18.6026 77.4818 18.5895V19.6726C77.4689 20.1977 77.7824 20.4603 78.4223 20.4603H79.4216C80.127 20.4603 80.8129 20.4537 81.4791 20.4406C82.1588 20.4143 82.7791 20.3881 83.3406 20.3618C83.9027 20.3225 84.3534 20.2897 84.6926 20.2634L85.4764 21.5434C85.4764 21.9503 84.1899 22.1538 81.6162 22.1538H77.6777ZM77.4818 17.0732H82.8703V15.8129C82.8703 15.5503 82.8378 15.3666 82.7723 15.2615C82.7203 15.1565 82.5507 15.0909 82.2629 15.0646C81.9757 15.0383 81.4858 15.0252 80.7933 15.0252H78.4223C77.7953 15.0252 77.4818 15.2878 77.4818 15.8129V17.0732ZM90.0248 22.1538C89.1363 22.1538 88.4836 22.1145 88.0653 22.0357C87.6471 21.9569 87.4383 21.865 87.4383 21.76L88.2221 20.0468C88.5228 20.0993 89.2674 20.1518 90.4559 20.2043C91.6579 20.2437 93.3039 20.2634 95.3938 20.2634H95.7661C96.3276 20.2634 96.7262 20.1649 96.9613 19.968C97.1965 19.758 97.3141 19.41 97.3141 18.9243V18.5305C97.3141 18.0709 97.2161 17.7428 97.0201 17.5458C96.837 17.3489 96.4194 17.2505 95.7661 17.2505H91.2201C89.9005 17.2505 88.9404 17.0076 88.3397 16.5218C87.739 16.0229 87.4383 15.2156 87.4383 14.0997V13.7846C87.4383 13.2069 87.543 12.6753 87.7518 12.1895C87.9741 11.7038 88.3464 11.3165 88.8687 11.0277C89.3911 10.7257 90.1099 10.5748 91.0242 10.5748H96.3539C97.2424 10.5748 97.9607 10.6207 98.5093 10.7126C99.058 10.8045 99.3323 10.9029 99.3323 11.008L98.9404 12.6621C98.6006 12.6228 97.8302 12.5834 96.6282 12.544C95.4262 12.4915 93.8133 12.4652 91.7883 12.4652L91.5728 12.4455C90.9721 12.4455 90.5667 12.5703 90.3579 12.8197C90.1491 13.056 90.0377 13.358 90.0248 13.7255V14.0603C90.0248 14.4935 90.1424 14.8217 90.3775 15.0449C90.6255 15.2549 91.0309 15.36 91.5924 15.36H95.9424C96.7783 15.36 97.4904 15.4453 98.0783 15.616C98.6661 15.7866 99.1168 16.1017 99.4303 16.5612C99.7438 17.0076 99.9006 17.6706 99.9006 18.5501V18.8652C99.9006 19.8498 99.6458 20.6441 99.1364 21.248C98.6398 21.8519 97.7715 22.1538 96.5303 22.1538H90.0248ZM104.64 22.1538C103.987 22.1538 103.484 22.0685 103.131 21.8978C102.779 21.7272 102.524 21.5106 102.366 21.248C102.223 20.9854 102.132 20.7097 102.093 20.4209C102.066 20.1321 102.054 19.8695 102.054 19.6332V15.8523C102.054 15.6554 102.066 15.4191 102.093 15.1434C102.132 14.8546 102.223 14.5723 102.366 14.2966C102.524 14.0209 102.779 13.7912 103.131 13.6074C103.497 13.4236 104 13.3317 104.64 13.3317H108.853C109.715 13.3317 110.387 13.417 110.871 13.5877C111.367 13.7452 111.714 14.0078 111.91 14.3754C112.118 14.7429 112.223 15.2353 112.223 15.8523V18.7668H108.794C107.618 18.7668 106.658 18.7405 105.914 18.688C105.182 18.6355 104.692 18.6026 104.444 18.5895V19.6726C104.431 20.1977 104.744 20.4603 105.385 20.4603H106.384C107.089 20.4603 107.775 20.4537 108.441 20.4406C109.12 20.4143 109.741 20.3881 110.303 20.3618C110.864 20.3225 111.315 20.2897 111.655 20.2634L112.439 21.5434C112.439 21.9503 111.152 22.1538 108.579 22.1538H104.64ZM104.444 17.0732H109.833V15.8129C109.833 15.5503 109.8 15.3666 109.735 15.2615C109.682 15.1565 109.512 15.0909 109.225 15.0646C108.937 15.0383 108.448 15.0252 107.756 15.0252H105.385C104.758 15.0252 104.444 15.2878 104.444 15.8129V17.0732ZM114.4 22.1538V13.3317H116.007L116.791 13.7255C117.339 13.6205 117.999 13.5286 118.77 13.4498C119.541 13.3711 120.422 13.3317 121.415 13.3317H122.395C123.048 13.3317 123.551 13.4236 123.903 13.6074C124.256 13.7912 124.505 14.0209 124.648 14.2966C124.805 14.5723 124.897 14.8546 124.922 15.1434C124.962 15.4191 124.981 15.6554 124.981 15.8523V22.1538H122.591V15.8129C122.591 15.2878 122.277 15.0252 121.65 15.0252H117.378C117.13 15.0252 116.967 15.0515 116.889 15.104C116.824 15.1434 116.791 15.2615 116.791 15.4585V22.1538H114.4ZM129.631 22.1538C128.977 22.1538 128.475 22.0685 128.122 21.8978C127.769 21.7272 127.514 21.5106 127.358 21.248C127.214 20.9854 127.123 20.7097 127.083 20.4209C127.057 20.1321 127.044 19.8695 127.044 19.6332V15.8523C127.044 15.6554 127.057 15.4191 127.083 15.1434C127.123 14.8546 127.214 14.5723 127.358 14.2966C127.514 14.0209 127.769 13.7912 128.122 13.6074C128.487 13.4236 128.991 13.3317 129.631 13.3317H130.63C131.832 13.3317 132.798 13.358 133.53 13.4105C134.275 13.4498 134.843 13.4958 135.235 13.5483V9.66891H137.625V22.1538H136.019L135.254 21.76C134.706 21.8519 134.046 21.9438 133.275 22.0357C132.504 22.1145 131.616 22.1538 130.61 22.1538H129.631ZM130.375 20.4603H134.627C134.902 20.4603 135.071 20.4275 135.137 20.3618C135.202 20.2962 135.235 20.1321 135.235 19.8695V15.1631C134.791 15.1368 134.229 15.1106 133.55 15.0843C132.87 15.0449 132.145 15.0252 131.375 15.0252H130.375C129.748 15.0252 129.435 15.2878 129.435 15.8129V19.6726C129.435 20.1977 129.748 20.4603 130.375 20.4603Z" fill="#007FC6"/>
<path d="M30.1672 25.283H30.3267L30.9487 17.9257L31.8414 16.0203L31.5656 11.9263C31.6327 11.0761 30.89 10.5975 30.4275 10.4014L29.5851 12.494L29.3575 10.686L29.4981 10.5743L29.4603 10.0826L29.8075 9.9597C29.7718 9.90911 29.7499 9.86056 29.7499 9.81896C29.7499 9.70407 29.7499 9.56013 29.7499 9.36407C29.8882 9.20019 29.9932 8.86757 30.055 8.4912C30.1421 8.45742 30.1988 8.4069 30.2733 8.01108C30.3247 7.7317 30.2428 7.55933 30.224 7.55933C30.2585 7.30573 30.3057 6.8045 30.182 6.55305C30.182 6.55305 30.267 6.38967 30.267 6.17201C29.9103 6.22628 28.7712 5.44613 28.4313 6.08132C27.9372 6.02644 27.6435 6.76917 27.8669 7.55933C27.8669 7.55933 27.59 7.5456 27.7012 7.95834C27.804 8.34684 27.8879 8.43533 28.0326 8.4912C28.0956 8.86757 28.1994 9.20019 28.3379 9.36407C28.3379 9.56019 28.3379 9.70407 28.3379 9.81896C28.3379 9.8437 28.3306 9.87004 28.318 9.89859L28.767 10.0583L28.7271 10.5742L28.8677 10.686L28.6338 12.5509L27.5743 10.4319C27.4243 10.4889 27.2355 10.5647 27.0414 10.6607L26.6848 13.3257L26.5306 11.0292C26.6176 9.92234 25.577 9.3309 25.0306 9.12579C24.997 9.11317 24.9613 9.09681 24.9236 9.07625L24.0466 11.2563L23.7991 9.29028L23.9523 9.16794L23.9103 8.63397L24.3194 8.48899C24.3173 8.47853 24.3151 8.46844 24.3151 8.45847C24.3151 8.31877 24.3151 8.14376 24.3151 7.90394C24.483 7.70419 24.611 7.29834 24.6876 6.83927C24.7935 6.7981 24.8628 6.73594 24.9529 6.2536C25.0169 5.91263 24.9172 5.70281 24.8921 5.70281C24.9351 5.39344 24.9939 4.782 24.8417 4.47519C24.8417 4.47519 24.9455 4.27594 24.9455 4.01031C24.5102 4.07619 23.1203 3.12475 22.7049 3.89962C22.1039 3.83269 21.7452 4.73932 22.0179 5.70281C22.0179 5.70281 21.6801 5.68544 21.8154 6.18985C21.9413 6.66321 22.043 6.77127 22.2203 6.83927C22.2969 7.29841 22.4238 7.70419 22.5926 7.90394C22.5926 8.11533 22.5926 8.27557 22.5926 8.40684L23.1559 8.6077L23.1129 9.16794L23.265 9.29028L23.0101 11.318L21.9076 9.11213C21.8972 9.11687 21.8867 9.1216 21.8773 9.12585C21.5919 9.23237 20.995 9.44425 20.5083 9.77847L20.0227 13.408L19.7982 10.0715C19.8066 9.96604 19.8024 9.86382 19.7888 9.7669C19.6513 8.69317 18.3433 8.09385 17.7317 7.85884L16.5107 10.4663L16.2086 8.06382L16.3943 7.91521L16.3419 7.23108L16.8453 7.05182C16.8453 6.88948 16.8453 6.68659 16.8453 6.40979C17.0426 6.17582 17.1926 5.70031 17.2817 5.16169C17.4894 5.08313 17.608 4.95607 17.7569 4.40106C17.9143 3.81019 17.5188 3.83075 17.5188 3.83075C17.8387 2.70119 17.4181 1.64013 16.7132 1.71813C16.2265 0.810503 14.5985 1.92525 14.0887 1.84775C14.0887 2.15875 14.2104 2.39225 14.2104 2.39225C14.0331 2.75125 14.1013 3.46863 14.1517 3.83075C14.1223 3.83025 13.7646 3.83444 13.9167 4.40106C14.0657 4.95607 14.1831 5.08313 14.3919 5.16169C14.481 5.70031 14.63 6.17582 14.8272 6.40979C14.8272 6.68659 14.8272 6.88948 14.8272 7.05182L15.422 7.26321L15.3716 7.91521L15.5583 8.06382L15.2363 10.6224L13.9419 7.85884C13.2736 8.11447 11.7768 8.80493 11.8754 10.0711L11.7075 12.5695L11.3342 9.77853C10.8474 9.44437 10.2496 9.23244 9.96526 9.12591C9.95479 9.12167 9.94419 9.11693 9.93378 9.11219L8.83134 11.318L8.57636 9.29034L8.72847 9.168L8.68542 8.60776L9.2487 8.4069C9.2487 8.27564 9.2487 8.11539 9.2487 7.90401C9.41655 7.70425 9.5455 7.29841 9.62107 6.83933C9.79834 6.77133 9.90005 6.66327 10.027 6.18991C10.1613 5.6855 9.8235 5.70288 9.8235 5.70288C10.0962 4.73938 9.73759 3.83275 9.1364 3.89969C8.72106 3.12481 7.33118 4.07625 6.89587 4.01037C6.89587 4.276 6.99972 4.47525 6.99972 4.47525C6.84872 4.78206 6.90634 5.3935 6.94939 5.70288C6.92422 5.70288 6.82453 5.91269 6.88858 6.25367C6.97982 6.73601 7.04797 6.79816 7.15501 6.83933C7.23051 7.29847 7.35745 7.70425 7.52633 7.90401C7.52633 8.14388 7.52633 8.3189 7.52633 8.45853C7.52633 8.4685 7.52419 8.47853 7.52315 8.48905L7.93127 8.63404L7.88932 9.168L8.04247 9.29034L7.79594 11.2564L6.91797 9.07631C6.88019 9.09687 6.84345 9.11324 6.81094 9.12585C6.26449 9.33096 5.22491 9.92234 5.31198 11.0292L5.15675 13.3306L4.79903 10.6608C4.60606 10.5648 4.41725 10.4889 4.26724 10.432L3.20777 12.5515L2.97382 10.686L3.11437 10.5742L3.0745 10.0583L3.52451 9.89859C3.51089 9.87004 3.50349 9.8437 3.50349 9.81896C3.50349 9.70407 3.50349 9.56013 3.50349 9.36407C3.64093 9.20019 3.7469 8.86757 3.80878 8.4912C3.95462 8.43533 4.03745 8.34684 4.14125 7.95834C4.25139 7.5456 3.97551 7.55933 3.97551 7.55933C4.19896 6.76917 3.90418 6.0265 3.4112 6.08132C3.07126 5.44613 1.93107 6.22628 1.57441 6.17201C1.57441 6.38967 1.65936 6.55305 1.65936 6.55305C1.5356 6.80444 1.58287 7.30573 1.6185 7.55933C1.5986 7.55933 1.51676 7.7317 1.56918 8.01108C1.64263 8.40696 1.69928 8.45748 1.78635 8.4912C1.84929 8.86757 1.95315 9.20019 2.09158 9.36407C2.09158 9.56019 2.09158 9.70407 2.09158 9.81896C2.09158 9.86056 2.07062 9.90905 2.03499 9.9597L2.38114 10.0826L2.34233 10.5743L2.48288 10.686L2.25639 12.493L1.41402 10.4015C0.951446 10.5976 0.208772 11.0762 0.274819 11.9264L0 16.0203L0.89268 17.9257L1.51576 25.283H1.67516L1.67205 25.3958L0.720596 26.4911L1.03739 26.889L2.94023 26.2507V25.283H3.03358L3.04726 19.8228L4.12981 25.283H4.38572L4.39617 25.3525L4.21158 26.3066L4.60183 26.8768L5.35284 26.8199L5.64756 26.2075L5.55838 25.2829H5.64756L5.20178 17.9256L5.53431 17.2162L6.06405 18.3473L6.82349 27.3222H7.01754L7.01436 27.4598L5.85428 28.7955L6.24134 29.2814L8.56167 28.5018V27.3222H8.67495L8.69277 20.6613L10.0134 27.3222H10.325L10.3387 27.4071L10.1132 28.5715L10.5883 29.2667L11.5052 29.1966L11.8649 28.4496L11.7558 27.3221H11.8649L11.3205 18.3473L11.9698 16.9615L12.7576 18.645V28.3135H12.9957L12.9947 28.3641L11.546 30.0329L12.0285 30.6396L14.9268 29.666V28.3135L15.8363 21.3564L16.7467 28.3135H16.8401V29.666L19.7373 30.6396L20.2209 30.0329L18.7712 28.3641L18.7701 28.3135H18.916V18.6452L19.7877 16.7825L20.5219 18.3474L19.9775 27.3223H20.0866L19.9775 28.4497L20.3362 29.1967L21.253 29.2668L21.7293 28.5716L21.5026 27.4072L21.5163 27.3223H21.8279L23.1496 20.6614L23.1663 27.3223H23.2796V28.5019L25.601 29.2815L25.987 28.7956L24.8269 27.4599L24.8237 27.3223H25.0178L25.7772 18.3475L26.307 17.2163L26.6395 17.9257L26.1937 25.283H26.2829L26.1937 26.2076L26.4884 26.82L27.2395 26.8769L27.6297 26.3067L27.4451 25.3526L27.4556 25.2831H27.7115L28.794 19.8229L28.8087 25.2831H28.9021V26.2508L30.8039 26.8891L31.1207 26.4912L30.1692 25.3959L30.1672 25.283Z" fill="#007FC6"/>
</svg>
